<svg width="78" height="78" viewBox="0 0 78 78" fill="none" xmlns="http://www.w3.org/2000/svg">
<path d="M68.8087 38.2565H68.7869C68.4912 38.2565 68.2064 38.144 67.9906 37.9445L55.7391 26.5855C55.2639 26.1447 55.2367 25.4028 55.6757 24.9293C56.1164 24.4541 56.8584 24.4269 57.3318 24.8659L69.4581 36.1069C69.7737 36.3173 69.9805 36.6765 69.9805 37.0828C69.9805 37.7322 69.4563 38.2565 68.8087 38.2565ZM45.2563 16.4437C44.9715 16.4437 44.6849 16.3403 44.46 16.1317C40.9536 12.8829 38.4903 10.5973 38.4903 10.5973C38.1728 10.3034 38.044 9.85902 38.1529 9.43999C38.2617 9.02097 38.5937 8.69809 39.0145 8.59651L39.234 8.5439C39.858 8.39516 40.4856 8.77609 40.6434 9.39646C41.5613 10.2472 43.5403 12.0829 46.0544 14.412C46.5297 14.8528 46.5569 15.5947 46.1179 16.0682C45.8857 16.3167 45.5719 16.4437 45.2563 16.4437Z" fill="#4A60A1"/>
<path d="M62.9297 69.4896C62.3238 69.4896 61.8105 69.0235 61.7615 68.4103C61.7416 68.1564 61.8032 67.9151 61.9248 67.7138V37.0761C61.9248 36.4285 62.449 35.9043 63.0966 35.9043C63.7442 35.9043 64.2684 36.4285 64.2684 37.0761V68.3051C64.2684 68.9164 63.7986 69.4243 63.1891 69.4733L63.0222 69.486C62.9914 69.4878 62.9605 69.4896 62.9297 69.4896Z" fill="#4A60A1"/>
<path d="M57.6601 25.4299C57.0144 25.4299 56.4883 24.9075 56.4883 24.2599L56.4665 13.9258C55.9713 13.7807 55.6158 13.32 55.6249 12.7794C55.6376 12.1318 56.1763 11.6112 56.8184 11.6294L57.6583 11.6439C58.2968 11.6548 58.8084 12.1754 58.8084 12.8139L58.8319 24.2545C58.8337 24.9021 58.3095 25.4281 57.6619 25.4299C57.6619 25.4299 57.6619 25.4299 57.6601 25.4299Z" fill="#4A60A1"/>
<path d="M56.1821 26.1856C56.1821 26.9713 56.8183 27.6074 57.6039 27.6074C58.3891 27.6074 59.0275 26.9718 59.0275 26.1856V12.6699C59.0275 11.8842 58.3914 11.248 57.6057 11.248H49.0547C48.2691 11.248 47.6329 11.8842 47.6329 12.6699V18.2115C47.6329 18.9971 48.2691 19.6333 49.0547 19.6333C49.8404 19.6333 50.4766 18.9971 50.4766 18.2115V14.0917H56.1821V26.1856Z" fill="#1E2640" stroke="#1E2640" stroke-width="0.5"/>
<path d="M8.23174 36.0344L8.2315 36.0346C7.65324 36.5645 7.61072 37.4645 8.14171 38.044C8.42145 38.35 8.8068 38.506 9.19129 38.506C9.53429 38.506 9.87793 38.3827 10.1506 38.1342L10.1508 38.134L39.1058 11.6677L67.6465 38.1273L67.6468 38.1277C68.2231 38.6599 69.1211 38.6272 69.6559 38.0505L69.6559 38.0505C70.1888 37.4758 70.1556 36.5757 69.5791 36.0411L69.5791 36.0411L40.0791 8.69243C39.5372 8.18792 38.6984 8.18611 38.1528 8.68556L8.23174 36.0344Z" fill="#4A60A1" stroke="#4A60A1" stroke-width="0.5"/>
<path d="M14.8073 69.7364H63.1074L64.2775 68.3128H64.5275V68.3121V33.757C64.5275 32.9713 63.8913 32.3352 63.1056 32.3352C62.32 32.3352 61.6838 32.9713 61.6838 33.757V66.891H16.2291V32.7031C16.2291 31.9174 15.593 31.2812 14.8073 31.2812C14.0217 31.2812 13.3855 31.9174 13.3855 32.7031V68.3146C13.3855 69.1003 14.0217 69.7364 14.8073 69.7364Z" fill="#4A60A1" stroke="#4A60A1" stroke-width="0.5"/>
<path d="M35.7375 43.5125C35.4124 42.7149 35.2468 41.8613 35.25 41C35.25 39.665 35.6459 38.3599 36.3876 37.2499C37.1293 36.1399 38.1835 35.2747 39.4169 34.7638C40.6503 34.2529 42.0075 34.1193 43.3169 34.3797C44.6262 34.6402 45.829 35.283 46.773 36.227C47.717 37.171 48.3599 38.3738 48.6203 39.6831C48.8808 40.9925 48.7471 42.3497 48.2362 43.5831C47.7253 44.8165 46.8601 45.8707 45.7501 46.6124C44.6401 47.3541 43.335 47.75 42 47.75C41.1387 47.7532 40.2851 47.5876 39.4875 47.2625V47.2625L38.25 48.5H36V50.75H33.75V53H30V49.25L35.7375 43.5125Z" stroke="#1E2640" stroke-width="1.5" stroke-linecap="round" stroke-linejoin="round"/>
<path d="M43.875 40.25C44.4963 40.25 45 39.7463 45 39.125C45 38.5037 44.4963 38 43.875 38C43.2537 38 42.75 38.5037 42.75 39.125C42.75 39.7463 43.2537 40.25 43.875 40.25Z" fill="#1E2640"/>
</svg>
